<?xml version="1.0" encoding="utf-8"?>
<!-- Generator: Adobe Illustrator 20.1.0, SVG Export Plug-In . SVG Version: 6.00 Build 0)  -->
<svg version="1.1"
	 id="Layer_1" inkscape:version="0.48.5 r10040" sodipodi:docname="HealthForge Logo Black Text.svg" xmlns:cc="http://creativecommons.org/ns#" xmlns:dc="http://purl.org/dc/elements/1.1/" xmlns:inkscape="http://www.inkscape.org/namespaces/inkscape" xmlns:rdf="http://www.w3.org/1999/02/22-rdf-syntax-ns#" xmlns:sodipodi="http://sodipodi.sourceforge.net/DTD/sodipodi-0.dtd" xmlns:svg="http://www.w3.org/2000/svg"
	 xmlns="http://www.w3.org/2000/svg" xmlns:xlink="http://www.w3.org/1999/xlink" x="0px" y="0px" viewBox="0 0 234 234.8"
	 style="enable-background:new 0 0 234 234.8;" xml:space="preserve">
<style type="text/css">
	.st0{fill:#286EA9;}
	.st1{fill:#FFFFFF;}
	.st2{fill:#8DBAE4;}
</style>
<sodipodi:namedview  bordercolor="#666666" borderopacity="1" gridtolerance="10" guidetolerance="10" id="namedview3055" inkscape:current-layer="Layer_1" inkscape:cx="21.605846" inkscape:cy="22.5" inkscape:pageopacity="0" inkscape:pageshadow="2" inkscape:window-height="480" inkscape:window-maximized="0" inkscape:window-width="640" inkscape:window-x="0" inkscape:window-y="0" inkscape:zoom="1.9902021" objecttolerance="10" pagecolor="#ffffff" showgrid="false">
	</sodipodi:namedview>
<path id="path4705-7_2_" inkscape:connector-curvature="0" class="st0" d="M234,117.4c0,64.9-52.5,117.4-117.4,117.4
	S0,182.3,0,117.4S52.5,0,116.6,0S234,52.5,234,117.4L234,117.4z"/>
<path id="path3051" inkscape:connector-curvature="0" class="st1" d="M142.9,118.1l-0.7,0.7c-10.2,5.1-16.8,16-16.8,28.4v17.5
	c0,11.7-8.7,20.4-19,20.4s-19-9.5-19-20.4v-40.1c19.7-2.2,35-19,35-39.4v-35c0-2.9-2.2-5.1-5.1-5.1H105c-2.9,0-5.1,2.2-5.1,5.1
	s2.2,5.1,5.1,5.1h7.3v29.9c0,16-13.1,29.2-29.2,29.2S54,101.3,54,85.3V55.4h8c2.9,0,5.1-2.2,5.1-5.1s-2.2-5.1-5.1-5.1H48.8
	c-2.9,0-5.1,2.2-5.1,5.1v35c0,19,14.6,35.7,33.5,38.6v40.8c0,17.5,13.1,31.3,29.2,31.3s29.2-13.9,29.2-31.3v-18.2
	c0-8.7,5.1-16.8,13.1-19.7l2.2-0.7L142.9,118.1L142.9,118.1z"/>
<path id="path3053" inkscape:connector-curvature="0" class="st2" d="M193.2,121l4.4-8h13.1c-2.9-5.1-8-8-13.9-8
	c-5.8,0-10.9,2.9-13.9,8v2.9h-32.8l10.2,10.2H183v3.6c2.9,5.1,8,8,13.9,8c5.8,0,11.7-3.6,13.9-8h-13.1L193.2,121L193.2,121z"/>
</svg>
